<svg width="12" height="12" viewBox="0 0 12 12" fill="none" xmlns="http://www.w3.org/2000/svg">
<path d="M11.4 5.99998C11.4 6.49768 11.3568 6.89998 10.8591 6.89998H6.89998V10.8591C6.89998 11.3559 6.49768 11.4 5.99998 11.4C5.50228 11.4 5.09998 11.3559 5.09998 10.8591V6.89998H1.14088C0.644075 6.89998 0.599976 6.49768 0.599976 5.99998C0.599976 5.50228 0.644075 5.09998 1.14088 5.09998H5.09998V1.14088C5.09998 0.643175 5.50228 0.599976 5.99998 0.599976C6.49768 0.599976 6.89998 0.643175 6.89998 1.14088V5.09998H10.8591C11.3568 5.09998 11.4 5.50228 11.4 5.99998Z" fill="#F2F2F2"/>
</svg>
